# xmcd
#
# Track frame offsets:
#	150
#	14694
#	37170
#	58164
#	76153
#	94056
#	118008
#	137232
#	159763
#	177869
#
# Disc length: 2708 seconds
#
# Revision: 4
# Processed by: cddbd v1.4PL0 Copyright (c) Steve Scherf et al.
# Submitted via: audiograbber 1.82.01
#
DISCID=800a920a
DTITLE=Macy Gray - On How Life Is
DYEAR=1999
DGENRE=Rock
TTITLE0=Why Didn't You Call Me
TTITLE1=Do Something
TTITLE2=Caligula
TTITLE3=I Try
TTITLE4=Sex-O-Matic Venus Freak
TTITLE5=I Can't Wait To Meetchu
TTITLE6=Still
TTITLE7=I've Commited Murder
TTITLE8=A Moment To Myself
TTITLE9=The Letter
EXTD=
EXTT0=
EXTT1=
EXTT2=
EXTT3=
EXTT4=
EXTT5=
EXTT6=
EXTT7=
EXTT8=
EXTT9=
PLAYORDER=
